<?xml version="1.0" encoding="UTF-8" standalone="no"?>
<!DOCTYPE svg PUBLIC "-//W3C//DTD SVG 1.1//EN" "http://www.w3.org/Graphics/SVG/1.1/DTD/svg11.dtd">
<svg width="100%" height="100%" viewBox="0 0 108 90" version="1.1" xmlns="http://www.w3.org/2000/svg" xmlns:xlink="http://www.w3.org/1999/xlink" xml:space="preserve" xmlns:serif="http://www.serif.com/" style="fill-rule:evenodd;clip-rule:evenodd;stroke-linejoin:round;stroke-miterlimit:2;">
    <g transform="matrix(1,0,0,1,-2303.52,-925.365)">
        <path d="M2328.85,927.339C2330.17,926.705 2331.68,926.151 2333.4,925.701C2335.81,924.935 2338.31,925.598 2340.69,926.503C2342.7,926.877 2344.37,927.415 2345.4,927.848C2346.05,928.121 2347.49,927.82 2349.4,927.473C2353.08,926.445 2356.73,925.691 2360.59,926.726C2379.13,931.698 2390.21,942.105 2397.95,955.762C2406.18,955.755 2413.74,966.928 2410.74,978.457C2406.87,993.347 2395.39,995.97 2382.93,989.693C2378.33,1002.78 2369.43,1011.57 2354.45,1014.28C2335.82,1016.9 2316.33,1006.78 2307.19,998.763C2298.77,991.374 2306.88,974.495 2311.26,972.497L2311.27,972.226C2311.16,971.428 2311.11,970.478 2311.11,969.43C2310.76,964.833 2310.98,959.849 2312.75,954.606L2312.75,954.605C2313.74,949.407 2313.83,947.623 2318.66,941.838C2319.68,937.678 2320.99,931.847 2327.42,928.098C2327.87,927.801 2328.35,927.547 2328.85,927.341L2328.85,927.339ZM2369.3,934.442C2380.81,939.693 2388.45,947.856 2394.15,957.913C2394.92,959.282 2396.38,960.127 2397.95,960.126C2400.05,960.124 2401.99,961.416 2403.54,963.25C2406.41,966.63 2407.92,971.95 2406.52,977.359C2405.04,983.043 2402.35,986.575 2398.6,987.898C2394.66,989.289 2389.89,988.315 2384.89,985.796C2383.77,985.231 2382.46,985.177 2381.3,985.646C2380.13,986.116 2379.22,987.063 2378.81,988.248C2374.76,999.781 2366.95,1007.55 2353.78,1009.97C2336.51,1012.35 2318.52,1002.91 2310.06,995.483C2307.1,992.884 2307.56,988.531 2308.64,984.74C2309.11,983.065 2309.77,981.465 2310.5,980.079C2310.64,985.059 2313.03,992.045 2324.63,995.219C2343.32,1000.34 2355.45,983.65 2361.36,979.088C2367.28,974.527 2361.34,970.077 2364.46,964.626C2367.57,959.175 2377.41,957.086 2372.48,941.486C2371.58,938.639 2370.5,936.322 2369.3,934.442ZM2395.2,966.497C2394.84,966.546 2394.48,966.402 2394.26,966.119C2394.04,965.835 2393.98,965.455 2394.11,965.118C2394.15,965.008 2394.19,964.901 2394.23,964.8C2394.35,964.484 2394.59,964.227 2394.9,964.077C2398.64,962.247 2401.64,964.55 2403.11,968.185C2405.1,973.153 2404.14,979.37 2400.1,983.049C2398.47,984.53 2396.35,985.461 2394.13,985.504C2390.93,985.565 2387.62,983.376 2387.38,980.034C2387.19,977.433 2388.91,973.915 2390.78,972.14C2391.2,971.739 2391.7,970.882 2392.15,969.963C2392.59,969.113 2393.49,968.6 2394.45,968.653C2394.51,968.663 2394.57,968.666 2394.63,968.674C2395.87,968.842 2397.03,969.759 2397.57,970.849C2398.74,973.178 2398.71,975.879 2397.42,978.152C2396.87,979.14 2396.14,979.81 2395.39,980.622C2395.23,980.795 2395.06,980.98 2394.98,981.206C2394.97,981.229 2394.93,981.383 2394.95,981.396C2395.38,981.652 2396.11,981.402 2396.54,981.262C2398,980.784 2399.15,979.9 2400,978.62C2401.34,976.613 2402,974.309 2401.89,971.9C2401.85,970.865 2401.68,969.812 2401.17,968.897C2400.05,966.929 2397.32,966.206 2395.2,966.497C2395.2,966.497 2395.2,966.497 2395.2,966.497ZM2326.03,973.835C2326.2,973.868 2326.36,973.956 2326.56,974.027C2326.94,974.16 2327.31,974.396 2327.8,974.64C2327.99,974.734 2328.18,974.841 2328.41,974.93C2328.61,975.011 2328.82,975.087 2329.05,975.148C2329.34,975.226 2329.64,975.264 2329.98,975.318C2330.46,975.396 2330.91,975.422 2331.46,975.507C2331.77,975.658 2332.14,975.529 2332.29,975.221C2332.44,974.913 2332.31,974.541 2332,974.39C2331.46,973.894 2331.02,973.488 2330.52,973.125C2330.29,972.965 2330.07,972.836 2329.85,972.724C2329.69,972.645 2329.52,972.582 2329.36,972.537C2328.88,972.402 2328.45,972.335 2328.04,972.32C2327.12,972.286 2326.46,972.384 2325.9,972.599C2325.56,972.634 2325.31,972.94 2325.35,973.281C2325.38,973.622 2325.69,973.87 2326.03,973.835ZM2320.05,961.377C2320.4,961.274 2320.75,961.23 2321.12,961.216C2321.37,961.206 2321.62,961.2 2321.87,961.202C2322.18,961.205 2322.88,961.298 2322.72,961.787C2322.7,961.847 2322.67,961.905 2322.64,961.957C2322.59,962.03 2322.52,962.089 2322.45,962.139C2322.28,962.254 2322.08,962.321 2321.89,962.381C2321.46,962.512 2320.93,962.507 2320.57,962.806C2320.2,963.117 2320.1,963.7 2320.61,963.911C2321.19,964.146 2321.92,963.875 2322.52,963.835C2323.61,963.762 2324.68,963.83 2325.76,964.005C2327.01,964.207 2328.24,964.519 2329.5,964.736C2331.4,965.067 2333.29,965.403 2335.15,965.936C2336.15,966.222 2337.07,966.632 2338.03,967.014C2338.82,967.329 2339.63,967.6 2340.41,967.961C2341.18,968.323 2342,968.597 2342.81,968.846C2343.28,968.987 2343.73,969.147 2344.22,969.153C2344.79,969.159 2345.47,969.095 2345.69,968.458C2345.92,967.789 2345.24,967.36 2344.74,967.144C2343.49,966.605 2342.1,966.416 2340.89,965.771C2340.78,965.712 2340.68,965.65 2340.57,965.586C2340.47,965.529 2340.38,965.467 2340.29,965.401C2340.22,965.351 2340.16,965.3 2340.09,965.249C2339.91,965.112 2339.74,964.978 2339.58,964.816C2339.48,964.708 2339.37,964.633 2339.5,964.499C2339.7,964.282 2340.11,964.341 2340.38,964.387C2341.1,964.516 2341.78,964.791 2342.5,964.983C2343,965.118 2343.5,965.252 2344,965.407C2344.51,965.566 2345.03,965.743 2345.51,965.963C2346.32,966.327 2347.08,966.935 2347.72,967.528C2348.03,967.812 2348.39,968.178 2348.57,968.566C2348.82,969.112 2348.76,969.798 2348.52,970.334C2348.4,970.602 2348.22,970.829 2348.03,971.05C2347.53,971.627 2346.93,972.187 2346.22,972.488C2344.8,973.085 2343.24,972.635 2341.8,972.42C2340.28,972.193 2338.78,971.963 2337.28,971.633C2336.14,971.382 2334.99,971.155 2333.84,970.922C2333.45,970.842 2333.06,970.772 2332.66,970.707C2332.53,970.685 2332.39,970.66 2332.26,970.63C2332.24,970.625 2332.05,970.57 2332.06,970.559C2332.15,970.385 2332.48,970.333 2332.65,970.307C2333.33,970.208 2334.12,970.318 2334.77,970.498C2335.38,970.664 2335.98,970.763 2336.59,970.896C2338.1,971.226 2339.62,971.548 2341.18,971.562C2341.68,971.567 2342.17,971.567 2342.66,971.514C2342.95,971.483 2343.21,971.468 2343.35,971.188C2343.67,970.534 2342.79,970.041 2342.33,969.835C2342.2,969.776 2342.06,969.72 2341.92,969.67C2341.77,969.614 2341.62,969.556 2341.47,969.504C2339.65,968.889 2337.81,968.422 2335.95,967.945C2335.17,967.745 2334.42,967.487 2333.63,967.334C2331.07,966.843 2328.46,966.619 2325.87,966.298C2324.88,966.175 2323.87,966.008 2322.87,965.987C2322.54,965.98 2322.17,965.92 2321.84,965.987C2321.24,966.109 2320.59,966.379 2320.59,967.084C2320.59,967.338 2320.68,967.588 2320.8,967.805C2320.95,968.053 2321.37,968.458 2321.04,968.72C2320.99,968.762 2320.93,968.795 2320.86,968.82C2320.78,968.855 2320.68,968.881 2320.59,968.897C2320.45,968.923 2320.31,968.931 2320.17,968.921C2319.97,968.906 2319.79,968.843 2319.61,968.771C2319.41,968.691 2319.18,968.614 2319.02,968.473C2318.52,968.045 2318.41,967.339 2318.36,966.728C2318.33,966.393 2318.31,966.058 2318.32,965.722C2318.33,965.348 2318.38,964.981 2318.43,964.612C2318.59,963.455 2318.92,962.143 2320.07,961.588L2320.05,961.377ZM2329.65,947.909C2329.74,946.086 2331.88,944.126 2334.8,944.673C2336.31,944.957 2339.99,945.554 2342.44,946.678C2344.72,947.722 2345.9,949.271 2344.09,950.179C2340.81,951.827 2340.45,948.911 2338.99,948.455C2337.53,948 2337.45,949.458 2336.28,949.595C2335.12,949.731 2334.53,947.742 2333.75,947.393C2332.97,947.043 2329.56,949.731 2329.65,947.909ZM2353.43,931.069C2353.64,931.128 2353.86,931.16 2354.08,931.165C2356.56,931.236 2359.1,932.14 2361.07,933.662C2361.84,934.254 2363.02,935.677 2361.84,936.504C2361.66,936.63 2361.45,936.703 2361.24,936.761C2360.9,936.856 2360.53,936.907 2360.18,936.914C2358.88,936.94 2357.72,936.067 2356.66,935.427C2355.54,934.751 2354.27,934.155 2353.01,933.788C2352.11,933.526 2351.2,933.337 2350.3,933.057C2349.91,932.933 2349.39,932.805 2349.09,932.495C2348.67,932.055 2348.76,931.487 2349.21,931.095C2349.22,931.095 2349.22,931.094 2349.22,931.093C2349.88,930.524 2350.78,930.324 2351.62,930.56C2352.19,930.721 2353,930.947 2353.43,931.069ZM2335.87,929.064C2335.83,929.056 2335.79,929.044 2335.75,929.029C2335.26,928.899 2334.19,929.057 2333.78,929.104C2333.26,929.163 2332.76,929.367 2332.26,929.514C2331.42,929.765 2330.55,929.924 2329.85,930.503C2329.14,931.089 2328.74,932.45 2329.66,933.029C2330.79,933.733 2332.55,932.81 2333.66,932.526C2334.01,932.437 2334.37,932.371 2334.73,932.321C2335.01,932.282 2335.28,932.25 2335.56,932.225C2335.81,932.203 2336.07,932.196 2336.32,932.178C2337.12,932.118 2338.99,931.916 2338.66,930.66C2338.62,930.51 2338.55,930.371 2338.46,930.244C2338.46,930.244 2338.46,930.244 2338.46,930.244C2338.06,929.69 2337.45,929.319 2336.77,929.209C2336.36,929.143 2335.96,929.077 2335.87,929.064Z" style="fill:white;"/>
    </g>
</svg>
